<svg width="40" height="40" viewBox="0 0 40 40" fill="none" xmlns="http://www.w3.org/2000/svg">
<path fill-rule="evenodd" clip-rule="evenodd" d="M18.3327 5.08894C10.8328 5.91802 4.99935 12.2765 4.99935 19.9974C4.99935 27.7183 10.8328 34.0768 18.3327 34.9058V5.08894ZM21.666 34.9058C29.1659 34.0768 34.9993 27.7183 34.9993 19.9974C34.9993 12.2765 29.1659 5.91802 21.666 5.08894V7.32632C27.936 8.14252 32.7782 13.504 32.7782 19.9965C32.7782 26.489 27.936 31.8505 21.666 32.6667V34.9058ZM19.9993 1.66406C9.87413 1.66406 1.66602 9.87217 1.66602 19.9974C1.66602 30.1226 9.87413 38.3307 19.9993 38.3307C30.1246 38.3307 38.3327 30.1226 38.3327 19.9974C38.3327 9.87217 30.1246 1.66406 19.9993 1.66406ZM21.666 12.9696V10.6985C26.0877 11.4852 29.4449 15.3488 29.4449 19.9965C29.4449 24.6442 26.0877 28.5078 21.666 29.2946V27.027C24.8507 26.2742 27.2205 23.413 27.2205 19.9983C27.2205 16.5836 24.8507 13.7224 21.666 12.9696ZM23.8872 19.9983C23.8872 21.5492 22.9793 22.888 21.666 23.5124V16.4841C22.9793 17.1085 23.8872 18.4474 23.8872 19.9983Z" fill="#808080"/>
</svg>
